<!DOCTYPE svg PUBLIC "-//W3C//DTD SVG 1.1//EN" "http://www.w3.org/Graphics/SVG/1.1/DTD/svg11.dtd">
<!-- Uploaded to: SVG Repo, www.svgrepo.com, Transformed by: SVG Repo Mixer Tools -->
<svg fill="#78c189" width="800px" height="800px" viewBox="0 0 256 256" id="Flat" xmlns="http://www.w3.org/2000/svg" stroke="#78c189">
<g id="SVGRepo_bgCarrier" stroke-width="0"/>
<g id="SVGRepo_tracerCarrier" stroke-linecap="round" stroke-linejoin="round"/>
<g id="SVGRepo_iconCarrier"> <path d="M90.124,46.44238,38.22363,128,90.124,209.55762a12,12,0,1,1-20.248,12.88476l-56-88a11.99935,11.99935,0,0,1,0-12.88476l56-88A12,12,0,0,1,90.124,46.44238Zm152,75.11524-56-88a12,12,0,1,0-20.248,12.88476L217.77637,128,165.876,209.55762a12,12,0,1,0,20.248,12.88476l56-88A11.99935,11.99935,0,0,0,242.124,121.55762Z"/> </g>
</svg>